<?xml version="1.0" encoding="UTF-8" standalone="no"?>
<!-- Created with Inkscape (http://www.inkscape.org/) -->

<svg
   xmlns:dc="http://purl.org/dc/elements/1.1/"
   xmlns:cc="http://creativecommons.org/ns#"
   xmlns:rdf="http://www.w3.org/1999/02/22-rdf-syntax-ns#"
   xmlns:svg="http://www.w3.org/2000/svg"
   xmlns="http://www.w3.org/2000/svg"
   xmlns:sodipodi="http://sodipodi.sourceforge.net/DTD/sodipodi-0.dtd"
   xmlns:inkscape="http://www.inkscape.org/namespaces/inkscape"
   width="102.5525mm"
   height="128.98438mm"
   viewBox="0 0 102.5525 128.98438"
   version="1.1"
   id="svg8"
   sodipodi:docname="logo.svg"
   inkscape:version="0.92.3 (2405546, 2018-03-11)">
  <defs
     id="defs2" />
  <sodipodi:namedview
     id="base"
     pagecolor="#ffffff"
     bordercolor="#666666"
     borderopacity="1.0"
     inkscape:pageopacity="0.0"
     inkscape:pageshadow="2"
     inkscape:zoom="0.98994949"
     inkscape:cx="-153.71356"
     inkscape:cy="236.63154"
     inkscape:document-units="mm"
     inkscape:current-layer="g4522"
     showgrid="false"
     inkscape:window-width="1920"
     inkscape:window-height="1017"
     inkscape:window-x="-8"
     inkscape:window-y="-8"
     inkscape:window-maximized="1"
     inkscape:pagecheckerboard="true" />
  <metadata
     id="metadata5">
    <rdf:RDF>
      <cc:Work
         rdf:about="">
        <dc:format>image/svg+xml</dc:format>
        <dc:type
           rdf:resource="http://purl.org/dc/dcmitype/StillImage" />
        <dc:title />
      </cc:Work>
    </rdf:RDF>
  </metadata>
  <g
     inkscape:label="Ebene 1"
     inkscape:groupmode="layer"
     id="layer1"
     transform="translate(-48.507379,-86.811865)">
    <g
       id="g4541"
       transform="matrix(0.26458333,0,0,0.26458333,31.865088,83.425198)">
      <g
         id="g4522">
        <path
           id="path4518"
           d="m 430.4,224.3 c -4.2,0 -8.1,1.4 -11.4,3.6 -11.2,-10.5 -26.3,-24.7 -32.4,-30.6 l 46.6,-46.6 c 0.8,-0.8 1.2,-1.8 1.2,-2.8 V 51.8 c 8.9,-1.9 15.7,-9.8 15.7,-19.3 0,-10.9 -8.8,-19.7 -19.7,-19.7 -10.9,0 -19.7,8.8 -19.7,19.7 0,9.5 6.8,17.4 15.7,19.3 v 94.5 l -82.2,82.2 c -0.8,0.8 -1.2,1.8 -1.2,2.8 v 21.6 c -5,0.4 -9.8,0.6 -14.4,0.6 -9.4,0 -18.1,-0.7 -26.3,-2.2 V 221 l 62.6,-62.7 c 0.1,-0.1 0.2,-0.1 0.3,-0.2 0.1,-0.1 0.1,-0.2 0.2,-0.3 L 385.2,138 c 0.7,-0.8 1.2,-1.8 1.2,-2.8 v -15.4 c 8.9,-1.9 15.7,-9.8 15.7,-19.3 0,-10.9 -8.8,-19.7 -19.7,-19.7 -10.9,0 -19.7,8.8 -19.7,19.7 0,9.5 6.7,17.4 15.7,19.3 v 13.7 l -16,16 -30.7,-30.7 V 80.5 c 9,-1.9 15.7,-9.8 15.7,-19.3 0,-10.9 -8.8,-19.7 -19.7,-19.7 -10.9,0 -19.7,8.8 -19.7,19.7 0,9.5 6.7,17.4 15.7,19.3 v 40.1 c 0,1.1 0.4,2.1 1.2,2.8 l 31.8,31.9 -61.2,61.2 c -0.7,0.8 -1.2,1.8 -1.2,2.8 v 30.2 c -13.2,-3.4 -24.6,-9.1 -34.5,-17.1 v -38.9 c 0,-0.1 0.1,-0.1 0.1,-0.2 l 34.6,-34.6 c 0.7,-0.8 1.2,-1.8 1.2,-2.8 v -70 c 0,-2.2 -1.8,-4 -4,-4 -2.2,0 -4,1.8 -4,4 v 68.4 l -27.8,27.9 V 58.5 c 8.9,-1.9 15.7,-9.8 15.7,-19.3 0,-10.9 -8.8,-19.7 -19.7,-19.7 -10.9,0 -19.7,8.8 -19.7,19.7 0,9.5 6.7,17.4 15.7,19.3 V 181 L 225.2,154.3 V 85.9 c 0,-2.2 -1.8,-4 -4,-4 -2.2,0 -4,1.8 -4,4 v 70 c 0,1.1 0.4,2.1 1.2,2.8 l 33.5,33.5 v 39.9 c -10.7,6.9 -21.8,12.1 -33.3,15.7 v -28.6 c 0,-1.1 -0.4,-2.1 -1.2,-2.8 L 156.2,155.2 188,123.3 c 0.8,-0.8 1.2,-1.8 1.2,-2.8 v -40 c 8.9,-1.9 15.7,-9.8 15.7,-19.3 0,-10.9 -8.8,-19.7 -19.7,-19.7 -10.9,0 -19.7,8.8 -19.7,19.7 0,9.5 6.8,17.4 15.7,19.3 v 38.4 l -30.7,30.7 -16,-16 v -13.7 c 8.9,-1.9 15.7,-9.8 15.7,-19.3 0,-10.9 -8.8,-19.7 -19.7,-19.7 -5.3,0 -10.2,2 -13.9,5.7 -3.7,3.7 -5.8,8.7 -5.8,13.9 0,9.5 6.7,17.4 15.7,19.3 v 15.4 c 0,1.1 0.4,2.1 1.2,2.8 l 19.8,19.8 c 0.1,0.1 0.2,0.2 0.2,0.3 0.1,0.1 0.2,0.2 0.3,0.2 l 62.6,62.6 V 250 c -10,2.4 -20.3,3.7 -30.9,3.7 -3.2,0 -6.5,-0.1 -9.8,-0.3 v -22.1 c 0,-1.1 -0.4,-2.1 -1.2,-2.8 l -33.9,-34 -48.2,-48.2 V 51.8 c 8.9,-1.9 15.7,-9.8 15.7,-19.3 0,-10.9 -8.8,-19.7 -19.7,-19.7 -5.3,0 -10.2,2 -13.9,5.7 -3.7,3.7 -5.8,8.7 -5.8,13.9 0,9.5 6.7,17.4 15.7,19.3 v 96.1 c 0,1.1 0.4,2.1 1.2,2.8 l 46.5,46.5 c -6.2,5.8 -21.8,19.9 -33.1,30.1 -3.1,-2 -6.7,-3.1 -10.6,-3.1 -5.3,0 -10.2,2.1 -13.9,5.8 -3.7,3.7 -5.8,8.7 -5.8,13.9 0,10.9 8.8,19.8 19.7,19.8 10.9,0 19.7,-8.9 19.7,-19.8 0,-4.1 -1.2,-7.8 -3.4,-11 11.2,-10 26.4,-23.8 33,-30 l 30,30 v 19.7 c -3.3,-0.4 -6.6,-0.9 -10,-1.5 -1.2,-0.2 -2.4,0.1 -3.3,0.9 -0.9,0.8 -1.4,1.9 -1.4,3.1 0,17.5 -0.1,32.7 -0.3,46.2 0,4.4 -0.1,8.7 -0.1,12.7 H 96.6 c -2.2,0 -4,1.8 -4,4 0,2.2 1.8,4 4,4 h 50.2 c -0.3,72.8 3.7,84.6 49,125.1 -0.5,0.2 -1,0.6 -1.3,1 -1,1.1 -10.2,9.7 -17.2,16.3 -3.2,-2.3 -7.1,-3.6 -11.3,-3.6 -10.9,0 -19.7,8.8 -19.7,19.7 0,10.9 8.8,19.7 19.7,19.7 10.9,0 19.7,-8.8 19.7,-19.7 0,-3.7 -1.1,-7.2 -2.9,-10.2 11.3,-10.6 17.3,-16.3 17.9,-17 0.3,-0.4 0.5,-0.8 0.7,-1.2 3.8,3.3 7.8,6.8 12,10.6 11.5,10 24.5,21.4 40,35.4 0.8,0.7 1.7,1 2.7,1 1,0 1.9,-0.3 2.7,-1 14.2,-13 26.5,-23.9 37.3,-33.4 4.9,-4.3 9.4,-8.3 13.6,-12.1 0.1,0.3 0.3,0.6 0.5,0.9 0.6,0.7 6.6,6.4 17.9,17 -1.8,3 -2.9,6.5 -2.9,10.2 0,10.9 8.8,19.7 19.7,19.7 10.9,0 19.7,-8.8 19.7,-19.7 0,-10.9 -8.8,-19.7 -19.7,-19.7 -4.2,0 -8.1,1.4 -11.3,3.6 -7,-6.6 -16.1,-15.2 -17.2,-16.3 -0.3,-0.3 -0.6,-0.6 -1,-0.8 48.3,-43.9 50.8,-54.4 49.7,-125.3 h 50.4 c 2.2,0 4,-1.8 4,-4 0,-2.2 -1.8,-4 -4,-4 H 365 c 0,-0.9 0,-1.7 0,-2.6 -0.3,-16 -0.6,-34.2 -0.6,-56.3 0,-1.2 -0.5,-2.3 -1.4,-3 -0.9,-0.8 -2,-1.1 -3.2,-0.9 -2.8,0.4 -5.7,0.8 -8.4,1.1 V 233 l 30,-30 c 6.9,6.7 23,21.8 32.6,30.8 -1.8,3 -2.9,6.5 -2.9,10.2 0,10.9 8.8,19.7 19.7,19.7 10.9,0 19.7,-8.9 19.7,-19.8 -0.4,-10.8 -9.2,-19.6 -20.1,-19.6 z M 418.7,32.5 c 0,-6.4 5.3,-11.7 11.7,-11.7 6.4,0 11.7,5.2 11.7,11.7 0,6.4 -5.2,11.7 -11.7,11.7 0,0 0,0 0,0 0,0 0,0 0,0 -6.4,0 -11.7,-5.2 -11.7,-11.7 z m -48,68.1 c 0,-6.4 5.2,-11.7 11.7,-11.7 6.5,0 11.7,5.2 11.7,11.7 0,6.4 -5.2,11.7 -11.7,11.7 0,0 0,0 0,0 0,0 0,0 0,0 -6.4,0 -11.7,-5.3 -11.7,-11.7 z m -43,-27.7 c -0.1,0 -0.3,0 -0.4,0 C 321,72.7 316,67.5 316,61.2 c 0,-6.4 5.2,-11.7 11.7,-11.7 6.5,0 11.7,5.2 11.7,11.7 0,6.3 -5,11.5 -11.3,11.7 -0.1,0 -0.2,0 -0.4,0 z M 173.5,61.2 c 0,-6.4 5.3,-11.7 11.7,-11.7 6.4,0 11.7,5.2 11.7,11.7 0,6.3 -5,11.5 -11.3,11.7 -0.1,0 -0.3,0 -0.4,0 -0.1,0 -0.3,0 -0.4,0 -6.3,-0.2 -11.3,-5.4 -11.3,-11.7 z m -43,51.1 c 0,0 0,0 0,0 -6.4,0 -11.7,-5.2 -11.7,-11.7 0,-3.1 1.2,-6.1 3.4,-8.3 2.2,-2.2 5.1,-3.4 8.3,-3.4 6.4,0 11.7,5.2 11.7,11.7 0,6.4 -5.2,11.7 -11.7,11.7 0,0 0,0 0,0 z m -48,-68.1 c 0,0 0,0 0,0 -6.4,0 -11.7,-5.2 -11.7,-11.7 0,-3.1 1.2,-6.1 3.4,-8.3 2.2,-2.2 5.1,-3.4 8.3,-3.4 6.4,0 11.7,5.2 11.7,11.7 0,6.5 -5.3,11.7 -11.7,11.7 0,0 0,0 0,0 z m 0,211.5 c -6.4,0 -11.7,-5.3 -11.7,-11.8 0,-3.1 1.2,-6 3.4,-8.3 2.2,-2.2 5.1,-3.4 8.3,-3.4 6.4,0 11.7,5.2 11.7,11.7 0,6.5 -5.3,11.8 -11.7,11.8 z m 83.4,236.4 c -6.4,0 -11.7,-5.2 -11.7,-11.7 0,-6.4 5.2,-11.7 11.7,-11.7 3.4,0 6.4,1.4 8.5,3.7 0,0 0,0 0,0 0,0 0,0 0,0 1.9,2.1 3.1,4.9 3.1,7.9 0.1,6.6 -5.1,11.8 -11.6,11.8 z m 170.2,-19.6 c 0,0 0,0 0,0 0,0 0,0 0,0 2.2,-2.3 5.2,-3.8 8.6,-3.8 6.4,0 11.7,5.2 11.7,11.7 0,6.4 -5.2,11.7 -11.7,11.7 -6.5,0 -11.7,-5.2 -11.7,-11.7 0,-3 1.2,-5.8 3.1,-7.9 z M 244.2,39.2 c 0,-6.4 5.2,-11.7 11.7,-11.7 6.5,0 11.7,5.2 11.7,11.7 0,6.4 -5.2,11.7 -11.7,11.7 0,0 0,0 0,0 0,0 0,0 0,0 -6.5,0 -11.7,-5.3 -11.7,-11.7 z m 111.9,220.5 c 0,20.1 0.3,36.9 0.6,51.9 0,2.2 0.1,4.3 0.1,6.4 0,0 0,0 0,0.1 0,0 0,0.1 0,0.1 0.7,39.4 0.6,60 -7,77 -8.1,18 -25.2,33.2 -59.2,63.4 -10.1,9 -21.5,19.1 -34.6,31.1 -14.3,-13 -26.5,-23.6 -37.4,-33.1 -32.4,-28.4 -48.7,-42.6 -56.5,-61.5 -6.9,-16.8 -7.5,-38.1 -7.3,-77 0,0 0,0 0,0 0,0 0,0 0,0 0,-5.2 0.1,-10.7 0.1,-16.6 0.1,-12.3 0.2,-26 0.3,-41.5 8.3,1.3 16.6,2 24.5,2 27.1,0 52.6,-7.6 76,-22.5 11.6,9.1 25.4,15.5 41.4,19 0.3,0.1 0.7,0.2 1,0.2 9.5,2 19.7,3 30.6,3 8.5,-0.2 17.7,-0.8 27.4,-2 z m 74.3,-4 c -6.5,0 -11.7,-5.3 -11.7,-11.8 0,-6.4 5.3,-11.7 11.7,-11.7 6.4,0 11.7,5.2 11.7,11.7 0,6.5 -5.2,11.8 -11.7,11.8 z"
           inkscape:connector-curvature="0"
           style="fill:#ffffff;fill-opacity:1" />
        <path
           id="path4520"
           d="m 252.9,258.1 c -24.3,13.1 -50.9,19.3 -78.9,18.4 -1.1,0 -2.1,0.4 -2.9,1.1 -0.8,0.7 -1.2,1.8 -1.2,2.8 l -0.1,9.5 c -0.2,19.7 -0.5,40 0.1,59.9 0.4,14.6 1.3,29.9 7.1,42 5.9,12.3 18.2,23.7 26.4,31.2 12.2,11.2 24.9,22.3 37.2,33.1 4.2,3.7 8.5,7.4 12.7,11.1 0.8,0.7 1.7,1 2.6,1 1,0 1.9,-0.3 2.7,-1 8.9,-8 16.9,-15 24,-21.3 60.9,-53.6 61.4,-54.8 59.6,-131.9 -0.2,-9.9 -0.5,-21.1 -0.7,-34 0,-1.1 -0.5,-2.1 -1.2,-2.9 -0.8,-0.7 -1.8,-1.1 -2.9,-1.1 -31.8,1.3 -58.9,-4.7 -80.4,-17.9 -1.3,-0.6 -2.9,-0.7 -4.1,0 z m 80.6,26.2 c 0.2,11.2 0.4,21.1 0.6,30 0.9,37.3 1.3,56 -5.6,71.3 -6.9,15.3 -21.8,28.4 -51.3,54.4 -6.4,5.6 -13.5,11.9 -21.4,19 -3.3,-2.9 -6.7,-5.9 -10.1,-8.8 -12.3,-10.7 -24.9,-21.7 -37,-32.9 -7.7,-7.1 -19.4,-17.8 -24.6,-28.8 -5.1,-10.6 -5.9,-25 -6.3,-38.8 -0.6,-19.7 -0.3,-40 -0.1,-59.6 l 0.1,-5.5 c 0.5,0 1,0 1.6,0 26.6,0 51.9,-6.2 75.3,-18.4 20.5,12 45.4,18.1 74.2,18.1 1.4,0 3,0 4.6,0 z"
           inkscape:connector-curvature="0"
           style="fill:#ffffff" />
      </g>
    </g>
  </g>
</svg>
