<?xml version="1.0" encoding="UTF-8" standalone="no"?>
<svg
   xmlns:dc="http://purl.org/dc/elements/1.1/"
   xmlns:cc="http://creativecommons.org/ns#"
   xmlns:rdf="http://www.w3.org/1999/02/22-rdf-syntax-ns#"
   xmlns:svg="http://www.w3.org/2000/svg"
   xmlns="http://www.w3.org/2000/svg"
   height="51.5"
   width="48.243401"
   id="svg36"
   xml:space="preserve"
   enable-background="new 0 0 100 100"
   viewBox="0 0 48.243401 51.500001"
   y="0px"
   x="0px"
   version="1.1"><metadata
     id="metadata42"><rdf:RDF><cc:Work
         rdf:about=""><dc:format>image/svg+xml</dc:format><dc:type
           rdf:resource="http://purl.org/dc/dcmitype/StillImage" /><dc:title></dc:title></cc:Work></rdf:RDF></metadata><defs
     id="defs40" /><path
     id="path5104"
     d="m 18.611047,26.906696 c -4.775218,2.15353 -5.056113,3.370742 -5.056113,3.370742 L 4.0044977,43.994486 2.178679,47.973834 4.1917611,49.37831 45.530168,49.003783 45.904694,46.335279 35.32431,30.183806 29.987301,28.077093 19.453732,25.923563 Z"
     style="fill:#b33c09;fill-opacity:1;stroke:none;stroke-width:1px;stroke-linecap:butt;stroke-linejoin:miter;stroke-opacity:1" /><g
     style="stroke:#ffffff;stroke-width:2;stroke-miterlimit:4;stroke-dasharray:none;stroke-opacity:1"
     transform="translate(-25.871095,-37.25)"
     id="g6"><path
       style="fill:#ffffff;stroke:#ffffff;stroke-width:2;stroke-miterlimit:4;stroke-dasharray:none;stroke-opacity:1"
       id="path2"
       d="m 71.85,81.142 c -0.255,-0.43 -0.486,-0.768 -0.636,-0.976 -1.529,-2.229 -3.097,-4.641 -4.483,-6.775 -3.214,-4.949 -4.495,-6.845 -5.257,-7.397 L 55.822,57.763 V 38.25 h -1 v 19.822 l 5.288,7.701 c -3.315,-0.141 -5.247,-1.041 -7.103,-1.923 -1.73,-0.823 -3.364,-1.601 -5.881,-1.601 -2.547,0 -4.507,0.739 -5.908,1.563 l 3.941,-5.74 V 38.25 h -1 v 19.512 l -15.23,22.186 c -0.103,0.135 -0.48,0.646 -0.882,1.344 -0.133,0.223 -0.324,0.568 -0.515,0.993 -0.016,0.036 -0.032,0.071 -0.047,0.108 -0.031,0.069 -0.061,0.14 -0.09,0.213 -0.475,1.144 -0.751,2.448 -0.236,3.488 0.478,0.967 1.533,1.513 3.14,1.631 0.221,0.017 0.453,0.025 0.695,0.025 h 37.29 0.708 c 2,0 3.291,-0.557 3.834,-1.656 0.159,-0.32 0.236,-0.666 0.262,-1.024 0.134,-1.049 -0.27,-2.344 -1.238,-3.928 z M 30.992,86.75 c -1.537,0 -2.509,-0.36 -2.89,-1.071 -0.163,-0.304 -0.216,-0.667 -0.196,-1.051 0,0 0,-0.002 0,-0.004 0.009,-0.167 0.036,-0.34 0.069,-0.513 0.018,-0.082 0.036,-0.166 0.058,-0.25 0.025,-0.1 0.051,-0.199 0.081,-0.299 0.225,-0.694 0.579,-1.396 0.927,-1.981 L 39.392,66.604 c 0.025,-0.033 2.626,-3.354 7.733,-3.354 2.291,0 3.755,0.696 5.451,1.503 1.989,0.946 4.244,2.014 8.237,2.046 l 9.444,13.754 c 0.063,0.082 0.14,0.194 0.216,0.303 0.006,0.01 0.013,0.02 0.019,0.028 0.13,0.189 0.245,0.371 0.359,0.552 0.617,1.006 1.307,2.439 1.235,3.541 -0.006,0.047 -0.005,0.1 -0.015,0.145 0,0.002 -0.001,0.003 -0.001,0.005 -0.031,0.136 -0.076,0.263 -0.137,0.379 -0.435,0.826 -1.664,1.245 -3.652,1.245 H 30.992 Z" /></g></svg>