<?xml version="1.0" encoding="UTF-8" standalone="no"?>
<svg
   xmlns:dc="http://purl.org/dc/elements/1.1/"
   xmlns:cc="http://creativecommons.org/ns#"
   xmlns:rdf="http://www.w3.org/1999/02/22-rdf-syntax-ns#"
   xmlns:svg="http://www.w3.org/2000/svg"
   xmlns="http://www.w3.org/2000/svg"
   xmlns:sodipodi="http://sodipodi.sourceforge.net/DTD/sodipodi-0.dtd"
   xmlns:inkscape="http://www.inkscape.org/namespaces/inkscape"
   version="1.1"
   x="0px"
   y="0px"
   viewBox="0 0 49.230278 76.056321"
   enable-background="new 0 0 100 100"
   xml:space="preserve"
   id="svg36"
   sodipodi:docname="flask.svg"
   width="49.230278"
   height="76.05632"
   inkscape:version="0.92.3 (2405546, 2018-03-11)"><metadata
     id="metadata42"><rdf:RDF><cc:Work
         rdf:about=""><dc:format>image/svg+xml</dc:format><dc:type
           rdf:resource="http://purl.org/dc/dcmitype/StillImage" /></cc:Work></rdf:RDF></metadata><defs
     id="defs40" /><sodipodi:namedview
     pagecolor="#ffffff"
     bordercolor="#666666"
     borderopacity="1"
     objecttolerance="10"
     gridtolerance="10"
     guidetolerance="10"
     inkscape:pageopacity="0"
     inkscape:pageshadow="2"
     inkscape:window-width="1920"
     inkscape:window-height="1017"
     id="namedview38"
     showgrid="false"
     inkscape:zoom="1.888"
     inkscape:cx="24.61873"
     inkscape:cy="26.75"
     inkscape:window-x="-8"
     inkscape:window-y="-8"
     inkscape:window-maximized="1"
     inkscape:current-layer="g6" /><g
     id="g6"
     transform="translate(-25.38127,-13.193678)"><path
       d="m 71.85,81.142 c -0.255,-0.43 -0.486,-0.768 -0.636,-0.976 -1.529,-2.229 -3.097,-4.641 -4.483,-6.775 -3.214,-4.949 -4.495,-6.845 -5.257,-7.397 L 55.822,57.763 V 38.25 h -1 v 19.822 l 5.288,7.701 c -3.315,-0.141 -5.247,-1.041 -7.103,-1.923 -1.73,-0.823 -3.364,-1.601 -5.881,-1.601 -2.547,0 -4.507,0.739 -5.908,1.563 l 3.941,-5.74 V 38.25 h -1 v 19.512 l -15.23,22.186 c -0.103,0.135 -0.48,0.646 -0.882,1.344 -0.133,0.223 -0.324,0.568 -0.515,0.993 -0.016,0.036 -0.032,0.071 -0.047,0.108 -0.031,0.069 -0.061,0.14 -0.09,0.213 -0.475,1.144 -0.751,2.448 -0.236,3.488 0.478,0.967 1.533,1.513 3.14,1.631 0.221,0.017 0.453,0.025 0.695,0.025 h 37.29 0.708 c 2,0 3.291,-0.557 3.834,-1.656 0.159,-0.32 0.236,-0.666 0.262,-1.024 0.134,-1.049 -0.27,-2.344 -1.238,-3.928 z M 30.992,86.75 c -1.537,0 -2.509,-0.36 -2.89,-1.071 -0.163,-0.304 -0.216,-0.667 -0.196,-1.051 0,0 0,-0.002 0,-0.004 0.009,-0.167 0.036,-0.34 0.069,-0.513 0.018,-0.082 0.036,-0.166 0.058,-0.25 0.025,-0.1 0.051,-0.199 0.081,-0.299 0.225,-0.694 0.579,-1.396 0.927,-1.981 L 39.392,66.604 c 0.025,-0.033 2.626,-3.354 7.733,-3.354 2.291,0 3.755,0.696 5.451,1.503 1.989,0.946 4.244,2.014 8.237,2.046 l 9.444,13.754 c 0.063,0.082 0.14,0.194 0.216,0.303 0.006,0.01 0.013,0.02 0.019,0.028 0.13,0.189 0.245,0.371 0.359,0.552 0.617,1.006 1.307,2.439 1.235,3.541 -0.006,0.047 -0.005,0.1 -0.015,0.145 0,0.002 -0.001,0.003 -0.001,0.005 -0.031,0.136 -0.076,0.263 -0.137,0.379 -0.435,0.826 -1.664,1.245 -3.652,1.245 H 30.992 Z"
       id="path2"
       inkscape:connector-curvature="0"
       style="fill:#ffffff;stroke:#ffffff;stroke-opacity:1" /><path
       d="M 68.99,88.75 H 30.992 c -0.268,0 -0.524,-0.01 -0.77,-0.028 -1.983,-0.146 -3.317,-0.881 -3.961,-2.185 -0.571,-1.152 -0.5,-2.604 0.209,-4.315 l 0.148,-0.345 c 0.218,-0.484 0.43,-0.864 0.569,-1.099 0.448,-0.776 0.867,-1.335 0.947,-1.438 L 43.159,57.451 V 37.25 h 3 v 21.133 l -2.233,3.252 c 1.022,-0.256 2.091,-0.385 3.2,-0.385 2.742,0 4.556,0.863 6.31,1.697 1.324,0.629 2.681,1.274 4.625,1.609 L 53.822,58.382 V 37.25 h 3 V 57.451 L 62.21,65.3 c 0.86,0.71 2.014,2.396 5.359,7.546 1.304,2.009 2.927,4.508 4.469,6.755 0.148,0.205 0.397,0.568 0.671,1.031 1.086,1.776 1.536,3.273 1.368,4.566 -0.032,0.466 -0.151,0.923 -0.357,1.34 -0.726,1.468 -2.318,2.212 -4.73,2.212 z M 28.903,84.706 c -0.005,0.235 0.023,0.394 0.08,0.5 0.069,0.128 0.416,0.544 2.009,0.544 h 37.29 c 1.765,0 2.586,-0.367 2.767,-0.711 0.008,-0.015 0.016,-0.031 0.022,-0.05 l 0.025,-0.146 c 0.037,-0.598 -0.371,-1.702 -1.097,-2.884 -0.121,-0.19 -0.219,-0.347 -0.331,-0.509 -0.1,-0.144 -0.158,-0.229 -0.207,-0.291 L 60.28,67.788 C 56.372,67.666 54.038,66.556 52.147,65.656 50.496,64.87 49.191,64.25 47.126,64.25 c -4.545,0 -6.849,2.849 -6.944,2.97 L 29.865,82.15 c -0.223,0.379 -0.578,1.041 -0.799,1.722 -0.02,0.065 -0.041,0.149 -0.062,0.232 -0.022,0.084 -0.037,0.151 -0.05,0.218 -0.021,0.105 -0.042,0.232 -0.049,0.355 z"
       id="path4"
       inkscape:connector-curvature="0"
       style="stroke:#ffffff;stroke-width:1;stroke-miterlimit:4;stroke-dasharray:none;stroke-opacity:1;fill:#ffffff" /></g><g
     id="g14"
     transform="translate(-26.16027,-14.452678)"
     style="fill:#ffffff;stroke:#ffffff;stroke-opacity:1"><g
       id="g12"
       style="fill:#ffffff;stroke:#ffffff;stroke-opacity:1"><path
         d="m 47.938,34.009 c -1.747,0 -3.168,-1.414 -3.168,-3.152 0,-1.738 1.421,-3.152 3.168,-3.152 1.747,0 3.168,1.414 3.168,3.152 0,1.738 -1.421,3.152 -3.168,3.152 z m 0,-5.305 c -1.195,0 -2.168,0.966 -2.168,2.152 0,1.186 0.973,2.152 2.168,2.152 1.195,0 2.168,-0.966 2.168,-2.152 0,-1.186 -0.972,-2.152 -2.168,-2.152 z"
         id="path8"
         inkscape:connector-curvature="0"
         style="fill:#ffffff;stroke:#ffffff;stroke-opacity:1" /><path
         d="m 47.938,34.509 c -2.022,0 -3.668,-1.639 -3.668,-3.652 0,-2.013 1.646,-3.652 3.668,-3.652 2.022,0 3.668,1.639 3.668,3.652 0,2.013 -1.645,3.652 -3.668,3.652 z m 0,-5.305 c -0.92,0 -1.668,0.741 -1.668,1.652 0,0.911 0.748,1.652 1.668,1.652 0.92,0 1.668,-0.741 1.668,-1.652 0,-0.911 -0.748,-1.652 -1.668,-1.652 z m 0,-1 c 1.471,0 2.668,1.189 2.668,2.652 0,-1.462 -1.196,-2.652 -2.668,-2.652 -1.472,0 -2.668,1.189 -2.668,2.652 10e-4,-1.462 1.197,-2.652 2.668,-2.652 z"
         id="path10"
         inkscape:connector-curvature="0"
         style="stroke:#ffffff;stroke-width:1;stroke-miterlimit:4;stroke-dasharray:none;stroke-opacity:1;fill:#ffffff" /></g></g><g
     id="g22"
     transform="translate(-20.614321,-13.193678)"
     style="fill:#ffffff;stroke:#ffffff;stroke-opacity:1"><g
       id="g20"
       style="fill:#ffffff;stroke:#ffffff;stroke-opacity:1"><path
         d="m 53.418,28.511 c -1.931,0 -3.501,-1.57 -3.501,-3.5 0,-1.93 1.57,-3.5 3.501,-3.5 1.93,0 3.5,1.57 3.5,3.5 0,1.93 -1.57,3.5 -3.5,3.5 z m 0,-6 c -1.379,0 -2.501,1.121 -2.501,2.5 0,1.379 1.122,2.5 2.501,2.5 1.378,0 2.5,-1.121 2.5,-2.5 0,-1.379 -1.122,-2.5 -2.5,-2.5 z"
         id="path16"
         inkscape:connector-curvature="0"
         style="fill:#ffffff;stroke:#ffffff;stroke-opacity:1" /><path
         d="m 53.418,29.011 c -2.206,0 -4.001,-1.794 -4.001,-4 0,-2.206 1.795,-4 4.001,-4 2.206,0 4,1.794 4,4 0,2.206 -1.794,4 -4,4 z m 0,-6 c -1.104,0 -2.001,0.897 -2.001,2 0,1.103 0.897,2 2.001,2 1.103,0 2,-0.897 2,-2 0,-1.103 -0.897,-2 -2,-2 z m 0,-1 c 1.654,0 3,1.346 3,3 0,-1.655 -1.346,-3 -3,-3 -1.655,0 -3.001,1.346 -3.001,3 0,-1.655 1.346,-3 3.001,-3 z"
         id="path18"
         inkscape:connector-curvature="0"
         style="stroke:#ffffff;stroke-width:1;stroke-miterlimit:4;stroke-dasharray:none;stroke-opacity:1;fill:#ffffff" /></g></g><g
     id="g30"
     transform="translate(-25.38127,-14.253)"
     style="fill:#ffffff;stroke:#ffffff;stroke-opacity:1"><g
       id="g28"
       style="fill:#ffffff;stroke:#ffffff;stroke-opacity:1"><path
         d="m 46.96,23.009 c -2.138,0 -3.878,-1.739 -3.878,-3.877 0,-2.139 1.74,-3.879 3.878,-3.879 2.139,0 3.879,1.74 3.879,3.879 0,2.138 -1.74,3.877 -3.879,3.877 z m 0,-6.756 c -1.587,0 -2.878,1.291 -2.878,2.879 0,1.586 1.291,2.877 2.878,2.877 1.587,0 2.879,-1.291 2.879,-2.877 0,-1.588 -1.292,-2.879 -2.879,-2.879 z"
         id="path24"
         inkscape:connector-curvature="0"
         style="fill:#ffffff;stroke:#ffffff;stroke-opacity:1" /><path
         d="m 46.96,23.509 c -2.414,0 -4.378,-1.964 -4.378,-4.377 0,-2.414 1.964,-4.379 4.378,-4.379 2.415,0 4.379,1.965 4.379,4.379 0,2.413 -1.964,4.377 -4.379,4.377 z m 0,-6.756 c -1.311,0 -2.378,1.067 -2.378,2.379 0,1.311 1.067,2.377 2.378,2.377 1.312,0 2.379,-1.066 2.379,-2.377 0,-1.312 -1.068,-2.379 -2.379,-2.379 z m 0,-1 c 1.863,0 3.379,1.516 3.379,3.379 0,-1.863 -1.516,-3.379 -3.379,-3.379 -1.863,0 -3.378,1.516 -3.378,3.379 0,-1.863 1.515,-3.379 3.378,-3.379 z"
         id="path26"
         inkscape:connector-curvature="0"
         style="stroke:#ffffff;stroke-width:1;stroke-miterlimit:4;stroke-dasharray:none;stroke-opacity:1;fill:#ffffff" /></g></g></svg>